ffmpeg started on 2016-11-30 at 12:40:47
Report written to "Output/x264/results/ffmpeg/old_town_cross_2160p50fast1000k.log"
Command line:
Tools/ffmpeg/ffmpeg -benchmark -y -i Input/y4m/old_town_cross_2160p50.y4m -c:v libx264 -preset fast -b:v 1000k -an Output/x264/encoded/old_town_cross_2160p50fast1000k.mkv
ffmpeg version N-82227-gdb23fde Copyright (c) 2000-2016 the FFmpeg developers
  built with gcc 5.4.0 (Ubuntu 5.4.0-6ubuntu1~16.04.2) 20160609
  configuration: --prefix=/home/jaroslav/ffmpeg_build --pkg-config-flags=--static --extra-cflags=-I/home/jaroslav/ffmpeg_build/include --extra-ldflags=-L/home/jaroslav/ffmpeg_build/lib --bindir=/home/jaroslav/bin --enable-gpl --enable-libass --enable-libfdk-aac --enable-libfreetype --enable-libmp3lame --enable-libopus --enable-libtheora --enable-libvorbis --enable-libvpx --enable-libx264 --enable-libx265 --enable-nvenc --enable-libmfx --enable-libxvid --enable-libgsm --enable-libopencore-amrnb --enable-version3 --enable-nonfree
  libavutil      55. 35.100 / 55. 35.100
  libavcodec     57. 66.101 / 57. 66.101
  libavformat    57. 57.100 / 57. 57.100
  libavdevice    57.  2.100 / 57.  2.100
  libavfilter     6. 66.100 /  6. 66.100
  libswscale      4.  3.100 /  4.  3.100
  libswresample   2.  4.100 /  2.  4.100
  libpostproc    54.  2.100 / 54.  2.100
Input #0, yuv4mpegpipe, from 'Input/y4m/old_town_cross_2160p50.y4m':
  Duration: 00:00:10.00, start: 0.000000, bitrate: 4976642 kb/s
    Stream #0:0: Video: rawvideo (I420 / 0x30323449), yuv420p(progressive), 3840x2160, SAR 1:1 DAR 16:9, 50 fps, 50 tbr, 50 tbn, 50 tbc
[libx264 @ 0x4452120] using SAR=1/1
[libx264 @ 0x4452120] using cpu capabilities: MMX2 SSE2Fast SSSE3 SSE4.2 AVX FMA3 AVX2 LZCNT BMI2
[libx264 @ 0x4452120] profile High, level 5.2
[libx264 @ 0x4452120] 264 - core 148 - H.264/MPEG-4 AVC codec - Copyleft 2003-2016 - http://www.videolan.org/x264.html - options: cabac=1 ref=2 deblock=1:0:0 analyse=0x3:0x113 me=hex subme=6 psy=1 psy_rd=1.00:0.00 mixed_ref=1 me_range=16 chroma_me=1 trellis=1 8x8dct=1 cqm=0 deadzone=21,11 fast_pskip=1 chroma_qp_offset=-2 threads=6 lookahead_threads=1 sliced_threads=0 nr=0 decimate=1 interlaced=0 bluray_compat=0 constrained_intra=0 bframes=3 b_pyramid=2 b_adapt=1 b_bias=0 direct=1 weightb=1 open_gop=0 weightp=1 keyint=250 keyint_min=25 scenecut=40 intra_refresh=0 rc_lookahead=30 rc=abr mbtree=1 bitrate=1000 ratetol=1.0 qcomp=0.60 qpmin=0 qpmax=69 qpstep=4 ip_ratio=1.40 aq=1:1.00
Output #0, matroska, to 'Output/x264/encoded/old_town_cross_2160p50fast1000k.mkv':
  Metadata:
    encoder         : Lavf57.57.100
    Stream #0:0: Video: h264 (libx264) (H264 / 0x34363248), yuv420p, 3840x2160 [SAR 1:1 DAR 16:9], q=-1--1, 1000 kb/s, 50 fps, 1k tbn, 50 tbc
    Metadata:
      encoder         : Lavc57.66.101 libx264
    Side data:
      cpb: bitrate max/min/avg: 0/0/1000000 buffer size: 0 vbv_delay: -1
Stream mapping:
  Stream #0:0 -> #0:0 (rawvideo (native) -> h264 (libx264))
Press [q] to stop, [?] for help
frame=   37 fps= 20 q=0.0 size=       0kB time=00:00:00.00 bitrate=N/A speed=   0x    frame=   46 fps= 19 q=58.0 size=       1kB time=00:00:00.06 bitrate=  96.3kbits/s speed=0.025x    frame=   57 fps= 19 q=58.0 size=       1kB time=00:00:00.28 bitrate=  20.9kbits/s speed=0.0954x    frame=   66 fps= 18 q=57.0 size=       1kB time=00:00:00.46 bitrate=  12.7kbits/s speed=0.127x    frame=   76 fps= 18 q=57.0 size=       1kB time=00:00:00.66 bitrate=   8.9kbits/s speed=0.159x    frame=   86 fps= 18 q=56.0 size=       1kB time=00:00:00.86 bitrate=   6.8kbits/s speed=0.178x    frame=   97 fps= 18 q=56.0 size=       1kB time=00:00:01.08 bitrate=   5.4kbits/s speed=0.202x    frame=  106 fps= 18 q=55.0 size=       1kB time=00:00:01.26 bitrate=   4.7kbits/s speed=0.208x    frame=  117 fps= 18 q=55.0 size=       1kB time=00:00:01.48 bitrate=   4.0kbits/s speed=0.226x    frame=  126 fps= 17 q=54.0 size=       1kB time=00:00:01.66 bitrate=   3.5kbits/s speed=0.229x    frame=  137 fps= 18 q=54.0 size=       1kB time=00:00:01.88 bitrate=   3.1kbits/s speed=0.243x    frame=  146 fps= 17 q=54.0 size=       1kB time=00:00:02.06 bitrate=   2.8kbits/s speed=0.244x    frame=  157 fps= 18 q=54.0 size=       1kB time=00:00:02.28 bitrate=   2.6kbits/s speed=0.255x    frame=  166 fps= 17 q=54.0 size=       1kB time=00:00:02.46 bitrate=   2.4kbits/s speed=0.255x    frame=  177 fps= 17 q=54.0 size=       1kB time=00:00:02.68 bitrate=   2.2kbits/s speed=0.264x    frame=  186 fps= 17 q=54.0 size=       1kB time=00:00:02.86 bitrate=   2.1kbits/s speed=0.264x    frame=  197 fps= 17 q=54.0 size=       1kB time=00:00:03.08 bitrate=   1.9kbits/s speed=0.272x    frame=  206 fps= 17 q=54.0 size=       1kB time=00:00:03.26 bitrate=   1.8kbits/s speed=0.271x    frame=  217 fps= 17 q=53.0 size=       1kB time=00:00:03.48 bitrate=   1.7kbits/s speed=0.278x    frame=  226 fps= 17 q=53.0 size=       1kB time=00:00:03.66 bitrate=   1.6kbits/s speed=0.277x    frame=  237 fps= 17 q=53.0 size=       1kB time=00:00:03.88 bitrate=   1.5kbits/s speed=0.283x    frame=  246 fps= 17 q=53.0 size=       1kB time=00:00:04.06 bitrate=   1.4kbits/s speed=0.281x    frame=  252 fps= 16 q=53.0 size=       1kB time=00:00:04.18 bitrate=   1.4kbits/s speed=0.269x    frame=  254 fps= 16 q=54.0 size=       1kB time=00:00:04.22 bitrate=   1.4kbits/s speed=0.261x    frame=  256 fps= 15 q=54.0 size=       1kB time=00:00:04.26 bitrate=   1.4kbits/s speed=0.254x    frame=  261 fps= 15 q=54.0 size=       1kB time=00:00:04.36 bitrate=   1.3kbits/s speed=0.251x    frame=  266 fps= 15 q=54.0 size=       1kB time=00:00:04.46 bitrate=   1.3kbits/s speed=0.249x    frame=  271 fps= 15 q=54.0 size=       1kB time=00:00:04.56 bitrate=   1.3kbits/s speed=0.246x    frame=  276 fps= 14 q=54.0 size=       1kB time=00:00:04.66 bitrate=   1.3kbits/s speed=0.244x    frame=  281 fps= 14 q=54.0 size=       1kB time=00:00:04.76 bitrate=   1.2kbits/s speed=0.242x    frame=  286 fps= 14 q=55.0 size=       1kB time=00:00:04.86 bitrate=   1.2kbits/s speed=0.24x    frame=  295 fps= 14 q=55.0 size=     584kB time=00:00:05.04 bitrate= 949.2kbits/s speed=0.242x    frame=  305 fps= 14 q=55.0 size=     584kB time=00:00:05.24 bitrate= 913.0kbits/s speed=0.246x    frame=  315 fps= 14 q=55.0 size=     584kB time=00:00:05.44 bitrate= 879.4kbits/s speed=0.247x    frame=  325 fps= 14 q=55.0 size=     584kB time=00:00:05.64 bitrate= 848.2kbits/s speed=0.25x    frame=  335 fps= 14 q=55.0 size=     584kB time=00:00:05.84 bitrate= 819.2kbits/s speed=0.251x    frame=  346 fps= 15 q=55.0 size=     584kB time=00:00:06.06 bitrate= 789.5kbits/s speed=0.255x    frame=  355 fps= 15 q=55.0 size=     584kB time=00:00:06.24 bitrate= 766.7kbits/s speed=0.255x    frame=  366 fps= 15 q=55.0 size=     584kB time=00:00:06.46 bitrate= 740.6kbits/s speed=0.259x    frame=  375 fps= 15 q=55.0 size=     584kB time=00:00:06.64 bitrate= 720.5kbits/s speed=0.259x    frame=  386 fps= 15 q=55.0 size=     584kB time=00:00:06.86 bitrate= 697.4kbits/s speed=0.262x    frame=  395 fps= 15 q=55.0 size=     584kB time=00:00:07.04 bitrate= 679.6kbits/s speed=0.262x    frame=  405 fps= 15 q=55.0 size=     584kB time=00:00:07.24 bitrate= 660.8kbits/s speed=0.265x    frame=  415 fps= 15 q=55.0 size=     584kB time=00:00:07.44 bitrate= 643.1kbits/s speed=0.265x    frame=  426 fps= 15 q=55.0 size=     584kB time=00:00:07.66 bitrate= 624.6kbits/s speed=0.268x    frame=  435 fps= 15 q=55.0 size=     584kB time=00:00:07.84 bitrate= 610.2kbits/s speed=0.268x    frame=  446 fps= 15 q=55.0 size=     584kB time=00:00:08.06 bitrate= 593.6kbits/s speed=0.271x    frame=  455 fps= 15 q=55.0 size=     584kB time=00:00:08.24 bitrate= 580.6kbits/s speed=0.271x    frame=  466 fps= 15 q=56.0 size=     584kB time=00:00:08.46 bitrate= 565.5kbits/s speed=0.273x    frame=  475 fps= 15 q=56.0 size=     584kB time=00:00:08.64 bitrate= 553.7kbits/s speed=0.273x    frame=  486 fps= 15 q=56.0 size=     584kB time=00:00:08.86 bitrate= 540.0kbits/s speed=0.275x    frame=  493 fps= 15 q=56.0 size=     584kB time=00:00:09.00 bitrate= 531.6kbits/s speed=0.269x    frame=  495 fps= 15 q=56.0 size=     584kB time=00:00:09.04 bitrate= 529.2kbits/s speed=0.265x    frame=  497 fps= 14 q=56.0 size=     584kB time=00:00:09.08 bitrate= 526.9kbits/s speed=0.261x    frame=  500 fps= 14 q=-1.0 Lsize=    1365kB time=00:00:09.94 bitrate=1124.6kbits/s speed=0.272x    
video:1360kB audio:0kB subtitle:0kB other streams:0kB global headers:0kB muxing overhead: 0.313261%
bench: utime=85.476s
bench: maxrss=1599076kB
[libx264 @ 0x4452120] frame I:3     Avg QP:49.80  size: 25644
[libx264 @ 0x4452120] frame P:183   Avg QP:50.98  size:  4328
[libx264 @ 0x4452120] frame B:314   Avg QP:51.00  size:  1667
[libx264 @ 0x4452120] consecutive B-frames: 16.0%  0.8%  0.0% 83.2%
[libx264 @ 0x4452120] mb I  I16..4: 17.9% 82.1%  0.0%
[libx264 @ 0x4452120] mb P  I16..4:  1.3%  0.2%  0.0%  P16..4:  5.6%  0.1%  1.3%  0.0%  0.0%    skip:91.5%
[libx264 @ 0x4452120] mb B  I16..4:  0.1%  0.0%  0.0%  B16..8:  2.7%  0.0%  0.0%  direct: 0.6%  skip:96.5%  L0:30.9% L1:69.0% BI: 0.0%
[libx264 @ 0x4452120] final ratefactor: 48.10
[libx264 @ 0x4452120] 8x8 transform intra:48.8% inter:99.7%
[libx264 @ 0x4452120] coded y,uvDC,uvAC intra: 3.2% 14.5% 0.3% inter: 0.2% 0.5% 0.0%
[libx264 @ 0x4452120] i16 v,h,dc,p: 51% 38%  5%  6%
[libx264 @ 0x4452120] i8 v,h,dc,ddl,ddr,vr,hd,vl,hu: 31% 10% 55%  1%  1%  1%  1%  0%  1%
[libx264 @ 0x4452120] i4 v,h,dc,ddl,ddr,vr,hd,vl,hu: 39% 26%  7%  8%  8%  2%  4%  3%  2%
[libx264 @ 0x4452120] i8c dc,h,v,p: 99%  1%  0%  0%
[libx264 @ 0x4452120] Weighted P-Frames: Y:0.5% UV:0.0%
[libx264 @ 0x4452120] ref P L0: 70.7% 29.3%
[libx264 @ 0x4452120] ref B L0: 78.3% 21.7%
[libx264 @ 0x4452120] ref B L1: 93.6%  6.4%
[libx264 @ 0x4452120] kb/s:1113.92
